<svg width="42" height="44" viewBox="0 0 42 44" fill="none" xmlns="http://www.w3.org/2000/svg">
<path d="M0.659614 12.3037C0.138833 13.077 0.694849 14.1365 1.64042 14.1365C1.74354 14.1365 1.8483 14.1246 1.95057 14.0949C6.68194 12.7193 9.78343 12.5154 9.78343 12.5154L9.78824 4.48541C7.29287 5.46768 3.31233 8.36437 0.659614 12.3037Z" fill="white"/>
<path d="M38.1377 15.9136C35.9141 13.6872 32.9671 12.4609 29.8397 12.4609C27.1968 12.4609 24.3523 10.9281 24.3523 7.5625V6.10156C24.3523 2.7372 21.6151 0 18.2507 0C15.4456 0 13.0765 1.90274 12.3664 4.48542L12.3616 12.5154C12.3801 12.5437 14.2116 14.1249 14.2116 18.2762V22.6875C14.2116 28.9456 18.2384 34.2801 23.8366 36.2384V41.4219H23.0632C22.3513 41.4219 21.7741 41.999 21.7741 42.7109C21.7741 43.4228 22.3513 44 23.0632 44H25.1257C25.8376 44 26.4148 43.4228 26.4148 42.7109V36.8782C27.8314 37.0918 29.2704 37.1011 30.7116 36.8595V41.4219H29.9382C29.2263 41.4219 28.6491 41.999 28.6491 42.7109C28.6491 43.4228 29.2263 44 29.9382 44H32.0007C32.7126 44 33.2898 43.4228 33.2898 42.7109V36.1459C41.5402 32.9038 44.4201 22.2044 38.1377 15.9136ZM18.2507 7.47673C17.5388 7.47673 16.9616 6.89958 16.9616 6.18767C16.9616 5.47577 17.5388 4.89861 18.2507 4.89861C18.9626 4.89861 19.5398 5.47577 19.5398 6.18767C19.5398 6.89958 18.9626 7.47673 18.2507 7.47673ZM25.006 27.6198C25.5094 28.1232 25.5094 28.9394 25.006 29.4428C24.5026 29.9462 23.6864 29.9463 23.183 29.4428C20.0063 26.2662 19.8643 22.6884 23.183 19.3698C23.6863 18.8664 24.5026 18.8664 25.006 19.3698C25.5094 19.8732 25.5094 20.6894 25.006 21.1928C23.9038 22.2951 23.3211 23.4063 23.3211 24.4063C23.3211 25.4064 23.9037 26.5174 25.006 27.6198Z" fill="white"/>
</svg>
